# Blender v2.78 (sub 0) OBJ File: ''
# www.blender.org
mtllib untitled.mtl
o Cube.022_Cube.029
v -0.145729 -0.022353 0.381805
v -0.145729 0.022353 0.381805
v -0.145729 -0.022353 -0.381805
v -0.145729 0.022353 -0.381805
v 0.145729 -0.022353 0.381805
v 0.145729 0.022353 0.381805
v 0.145729 -0.022353 -0.381805
v 0.145729 0.022353 -0.381805
v -0.127486 -0.314957 0.344649
v -0.127513 -0.299919 0.344630
v -0.113366 -0.315806 -0.350271
v -0.113392 -0.300768 -0.350290
v 0.163881 -0.314430 0.350569
v 0.163854 -0.299392 0.350550
v 0.178001 -0.315279 -0.344351
v 0.177974 -0.300241 -0.344370
v -0.116843 -0.034959 0.003733
v -0.116582 -0.035045 -0.011301
v -0.128844 -0.644295 0.006988
v -0.128582 -0.644380 -0.008046
v -0.030155 -0.036658 0.005251
v -0.029894 -0.036744 -0.009783
v -0.042156 -0.645994 0.008506
v -0.041894 -0.646080 -0.006528
v -0.110977 -0.036876 -0.333438
v -0.110715 -0.036961 -0.348472
v -0.122977 -0.646211 -0.330184
v -0.122716 -0.646297 -0.345218
v -0.024289 -0.038575 -0.331920
v -0.024027 -0.038660 -0.346954
v -0.036289 -0.647911 -0.328666
v -0.036027 -0.647996 -0.343700
v -0.122801 -0.033013 0.346160
v -0.122539 -0.033098 0.331126
v -0.134801 -0.642349 0.349415
v -0.134540 -0.642434 0.334380
v -0.036113 -0.034712 0.347678
v -0.035851 -0.034798 0.332644
v -0.048113 -0.644048 0.350933
v -0.047852 -0.644133 0.335898
v -0.129582 -0.040035 0.344270
v -0.129609 -0.024997 0.344251
v -0.115462 -0.040885 -0.350650
v -0.115488 -0.025846 -0.350669
v 0.161785 -0.039508 0.350190
v 0.161758 -0.024470 0.350171
v 0.175905 -0.040358 -0.344730
v 0.175878 -0.025319 -0.344749
v 1.688828 -1.329420 1.092611
v 1.688828 0.144442 1.092611
v 1.688828 -1.329420 0.913678
v 1.688828 0.144442 0.913678
v 1.892899 -1.329420 1.092611
v 1.892899 0.144442 1.092611
v 1.892899 -1.329420 0.913678
v 1.892899 0.144442 0.913678
v 1.727481 -1.330879 -0.758826
v 1.727481 0.142984 -0.758826
v 1.727481 -1.330879 -0.937759
v 1.727481 0.142984 -0.937759
v 1.931552 -1.330879 -0.758826
v 1.931552 0.142984 -0.758826
v 1.931552 -1.330879 -0.937759
v 1.931552 0.142984 -0.937759
v -0.100521 -1.331154 -0.796990
v -0.100521 0.142709 -0.796990
v -0.100521 -1.331154 -0.975923
v -0.100521 0.142709 -0.975923
v 0.103551 -1.331154 -0.796990
v 0.103551 0.142709 -0.796990
v 0.103551 -1.331154 -0.975923
v 0.103551 0.142709 -0.975923
v -0.139273 -1.329691 1.059194
v -0.139273 0.144172 1.059194
v -0.139273 -1.329691 0.880261
v -0.139273 0.144172 0.880261
v 0.064799 -1.329691 1.059194
v 0.064799 0.144172 1.059194
v 0.064799 -1.329691 0.880261
v 0.064799 0.144172 0.880261
v -0.168171 -1.403238 1.090075
v -0.168171 -1.281669 1.090075
v -0.168171 -1.403238 0.798999
v -0.168171 -1.281669 0.798999
v 0.122905 -1.403238 1.090075
v 0.122905 -1.281669 1.090075
v 0.122905 -1.403238 0.798999
v 0.122905 -1.281669 0.798999
v -0.168171 -1.403238 1.090075
v -0.168171 -1.281669 1.090075
v -0.168171 -1.403238 0.798999
v -0.168171 -1.281669 0.798999
v 0.122905 -1.403238 1.090075
v 0.122905 -1.281669 1.090075
v 0.122905 -1.403238 0.798999
v 0.122905 -1.281669 0.798999
v -0.131036 -1.403484 -0.717406
v -0.131036 -1.281916 -0.717406
v -0.131036 -1.403484 -1.008483
v -0.131036 -1.281916 -1.008483
v 0.160041 -1.403484 -0.717406
v 0.160041 -1.281916 -0.717406
v 0.160041 -1.403484 -1.008483
v 0.160041 -1.281916 -1.008483
v 1.675571 -1.403633 -0.685716
v 1.675571 -1.282065 -0.685716
v 1.675571 -1.403633 -0.976793
v 1.675571 -1.282065 -0.976793
v 1.966648 -1.403633 -0.685716
v 1.966648 -1.282065 -0.685716
v 1.966648 -1.403633 -0.976793
v 1.966648 -1.282065 -0.976793
v 1.631948 -1.401707 1.134030
v 1.631948 -1.280138 1.134030
v 1.631948 -1.401707 0.842954
v 1.631948 -1.280138 0.842954
v 1.923025 -1.401707 1.134030
v 1.923025 -1.280138 1.134030
v 1.923025 -1.401707 0.842954
v 1.923025 -1.280138 0.842954
v -0.122801 -0.033013 0.346160
v -0.122539 -0.033098 0.331126
v -0.134801 -0.642349 0.349415
v -0.134540 -0.642434 0.334380
v -0.036113 -0.034712 0.347678
v -0.035851 -0.034798 0.332644
v -0.048113 -0.644048 0.350933
v -0.047852 -0.644133 0.335898
v -0.168374 0.116120 1.088874
v -0.168374 0.237689 1.088874
v -0.168374 0.116120 0.797797
v -0.168374 0.237689 0.797797
v 0.122702 0.116120 1.088874
v 0.122702 0.237689 1.088874
v 0.122702 0.116120 0.797797
v 0.122702 0.237689 0.797797
v -0.131239 0.116032 -0.718608
v -0.131239 0.237601 -0.718608
v -0.131239 0.116032 -1.009685
v -0.131239 0.237601 -1.009685
v 0.159838 0.116033 -0.718608
v 0.159838 0.237601 -0.718608
v 0.159838 0.116033 -1.009685
v 0.159838 0.237601 -1.009685
v 1.675369 0.112604 -0.686915
v 1.675369 0.234172 -0.686915
v 1.675369 0.112604 -0.977992
v 1.675369 0.234172 -0.977992
v 1.966445 0.112604 -0.686915
v 1.966445 0.234172 -0.686915
v 1.966445 0.112604 -0.977992
v 1.966445 0.234172 -0.977992
v 1.915568 -1.401628 -0.919560
v 1.873822 -1.400052 1.080004
v -0.125742 -1.400353 1.038258
v -0.083996 -1.401929 -0.961306
v 1.915349 0.235630 -0.920854
v 1.873603 0.237205 1.078709
v -0.125961 0.236905 1.036963
v -0.084215 0.235329 -0.962600
v -0.190482 -0.703086 0.421014
v -0.190482 -0.632588 0.421014
v -0.190482 -0.703086 -0.421014
v -0.190482 -0.632588 -0.421014
v 0.100975 -0.703086 0.421014
v 0.100975 -0.632587 0.421014
v 0.100975 -0.703086 -0.421014
v 0.100975 -0.632587 -0.421014
v 1.631746 0.118854 1.132828
v 1.631746 0.240422 1.132828
v 1.631746 0.118854 0.841751
v 1.631746 0.240422 0.841751
v 1.922822 0.118854 1.132828
v 1.922822 0.240422 1.132828
v 1.922822 0.118854 0.841751
v 1.922822 0.240422 0.841751
vt 0.6136 0.5904
vt 0.6134 0.5904
vt 0.6134 0.5902
vt 0.6136 0.5902
vt 0.5918 0.5605
vt 0.6543 0.5605
vt 0.6353 0.6201
vt 0.5728 0.6201
vt 0.5883 0.6272
vt 0.5728 0.6205
vt 0.6109 0.6303
vt 0.6173 0.6279
vt 0.6384 0.6269
vt 0.6653 0.6482
vt 0.6112 0.6482
vt 0.6057 0.6236
vt 0.5465 0.4031
vt 0.5435 0.4032
vt 0.5425 0.2716
vt 0.5459 0.2718
vt 0.5372 0.1440
vt 0.5498 0.1444
vt 0.5545 0.5594
vt 0.5372 0.5601
vt 0.5287 0.4031
vt 0.5257 0.4032
vt 0.5247 0.2716
vt 0.5281 0.2718
vt 0.5193 0.1440
vt 0.5320 0.1444
vt 0.5367 0.5594
vt 0.5193 0.5601
vt 0.5643 0.4032
vt 0.5613 0.4032
vt 0.5604 0.2716
vt 0.5637 0.2719
vt 0.5550 0.1440
vt 0.5676 0.1444
vt 0.5724 0.5594
vt 0.5550 0.5601
vt 0.5883 0.6553
vt 0.5728 0.6486
vt 0.6109 0.6585
vt 0.6173 0.6560
vt 0.6384 0.6550
vt 0.6653 0.6763
vt 0.6112 0.6763
vt 0.6057 0.6517
vt 0.0000 0.0000
vt 0.0000 0.0000
vt 0.0000 0.0000
vt 0.0000 0.0000
vt 0.0000 0.0000
vt 0.0000 0.0000
vt 0.0000 0.0000
vt 0.0000 0.0000
vt 0.0000 0.0000
vt 0.0000 0.0000
vt 0.0000 0.0000
vt 0.0000 0.0000
vt 0.0000 0.0000
vt 0.0000 0.0000
vt 0.0000 0.0000
vt 0.0000 0.0000
vt 0.0562 0.0000
vt 0.0562 0.9997
vt 0.0387 0.9998
vt 0.0387 0.0002
vt 0.0175 0.9998
vt 0.0175 0.0002
vt 0.0000 1.0000
vt 0.0000 0.0003
vt 0.0000 0.0000
vt 0.0000 0.0000
vt 0.0000 0.0000
vt 0.0000 0.0000
vt 0.0000 0.0000
vt 0.0000 0.0000
vt 0.0000 0.0000
vt 0.0000 0.0000
vt 0.0000 0.0000
vt 0.0000 0.0000
vt 0.0000 0.0000
vt 0.0000 0.0000
vt 0.0000 0.0000
vt 0.0000 0.0000
vt 0.0000 0.0000
vt 0.0000 0.0000
vt 0.6032 0.1570
vt 0.6012 0.2146
vt 0.5906 0.2304
vt 0.5906 0.1441
vt 0.6179 0.2308
vt 0.6179 0.3050
vt 0.5906 0.3050
vt 0.5906 0.2308
vt 0.6385 0.1440
vt 0.6385 0.2303
vt 0.6259 0.2174
vt 0.6279 0.1598
vt 0.0000 0.0000
vt 0.0000 0.0000
vt 0.0000 0.0000
vt 0.0000 0.0000
vt 0.0000 0.0000
vt 0.0000 0.0000
vt 0.0000 0.0000
vt 0.0000 0.0000
vt 0.0000 0.0000
vt 0.0000 0.0000
vt 0.0000 0.0000
vt 0.0000 0.0000
vt 0.0000 0.0000
vt 0.0000 0.0000
vt 0.0000 0.0000
vt 0.0000 0.0000
vt 0.0000 0.0000
vt 0.0000 0.0000
vt 0.0000 0.0000
vt 0.0000 0.0000
vt 0.0000 0.0000
vt 0.0000 0.0000
vt 0.0000 0.0000
vt 0.0000 0.0000
vt 0.0936 0.2077
vt 0.0070 0.0003
vt 0.0930 0.0001
vt 0.0683 0.2144
vt 0.3793 0.9999
vt 0.0148 0.0460
vt 0.0001 0.9999
vt 0.1022 0.0264
vt 0.0000 0.0000
vt 0.0000 0.0000
vt 0.0000 0.0000
vt 0.0000 0.0000
vt 0.5822 0.4032
vt 0.5792 0.4032
vt 0.5782 0.2716
vt 0.5816 0.2719
vt 0.5728 0.1440
vt 0.5855 0.1444
vt 0.5902 0.5594
vt 0.5728 0.5601
vt 0.0000 0.0000
vt 0.0000 0.0000
vt 0.0000 0.0000
vt 0.0000 0.0000
vt 0.0000 0.0000
vt 0.0000 0.0000
vt 0.0000 0.0000
vt 0.0000 0.0000
vt 0.0000 0.0000
vt 0.0000 0.0000
vt 0.0000 0.0000
vt 0.0000 0.0000
vt 0.0000 0.0000
vt 0.0000 0.0000
vt 0.0000 0.0000
vt 0.0000 0.0000
vt 0.0000 0.0000
vt 0.0000 0.0000
vt 0.0000 0.0000
vt 0.0000 0.0000
vt 0.0000 0.0000
vt 0.0000 0.0000
vt 0.0000 0.0000
vt 0.0000 0.0000
vt 0.7097 0.0721
vt 0.7064 0.1435
vt 0.5193 0.1435
vt 0.5227 0.0721
vt 0.7097 0.0717
vt 0.5227 0.0717
vt 0.5193 0.0002
vt 0.7064 0.0002
vt 0.4468 0.0002
vt 0.4469 0.9988
vt 0.3754 0.9998
vt 0.3753 0.0012
vt 0.3748 0.0004
vt 0.3748 0.9990
vt 0.1877 0.9988
vt 0.1877 0.0002
vt 0.5189 0.0012
vt 0.5189 0.9998
vt 0.4474 0.9988
vt 0.4474 0.0002
vt 0.0002 0.9990
vt 0.0002 0.0004
vt 0.1873 0.0002
vt 0.1873 0.9988
vt 0.0000 0.0000
vt 0.0000 0.0000
vt 0.0000 0.0000
vt 0.0000 0.0000
vt 0.0000 0.0000
vt 0.0000 0.0000
vt 0.0000 0.0000
vt 0.0000 0.0000
vt 0.0000 0.0000
vt 0.0000 0.0000
vt 0.0000 0.0000
vt 0.0000 0.0000
vt 0.0000 0.0000
vt 0.0000 0.0000
vt 0.0000 0.0000
vt 0.0000 0.0000
vn -1.0000 0.0000 0.0000
vn 0.0000 0.0000 -1.0000
vn 0.0000 0.0000 1.0000
vn 0.0000 -1.0000 0.0000
vn 0.0000 1.0000 0.0000
vn -0.9998 -0.0018 -0.0203
vn 0.0203 -0.0012 -0.9998
vn -0.0203 0.0012 0.9998
vn 0.0018 -1.0000 0.0013
vn -0.0018 1.0000 -0.0013
vn -0.9997 0.0196 -0.0175
vn -0.0197 -0.9998 0.0053
vn 0.0197 0.9998 -0.0053
vn -0.0174 0.0057 0.9998
vn 0.0174 -0.0057 -0.9998
vn 1.0000 -0.0000 0.0000
vn 0.0001 -1.0000 0.0008
vn -0.0001 1.0000 -0.0008
vn 0.9998 0.0002 0.0209
vn -0.0209 0.0008 0.9998
vn -0.9998 -0.0002 -0.0209
vn 0.0209 -0.0008 -0.9998
usemtl Material
s off
f 1/1/1 2/2/1 4/3/1 3/4/1
f 3/4/2 4/3/2 8/5/2 7/6/2
f 5/7/3 6/8/3 2/2/3 1/1/3
f 3/4/4 7/6/4 5/7/4 1/1/4
f 8/5/5 4/3/5 2/2/5 6/8/5
f 9/9/6 10/10/6 12/11/6 11/12/6
f 11/12/7 12/11/7 16/13/7 15/14/7
f 13/15/8 14/16/8 10/10/8 9/9/8
f 11/12/9 15/14/9 13/15/9 9/9/9
f 16/13/10 12/11/10 10/10/10 14/16/10
f 17/17/11 18/18/11 20/19/11 19/20/11
f 19/20/12 20/19/12 24/21/12 23/22/12
f 21/23/13 22/24/13 18/18/13 17/17/13
f 19/20/14 23/22/14 21/23/14 17/17/14
f 24/21/15 20/19/15 18/18/15 22/24/15
f 25/25/11 26/26/11 28/27/11 27/28/11
f 27/28/12 28/27/12 32/29/12 31/30/12
f 29/31/13 30/32/13 26/26/13 25/25/13
f 27/28/14 31/30/14 29/31/14 25/25/14
f 32/29/15 28/27/15 26/26/15 30/32/15
f 33/33/11 34/34/11 36/35/11 35/36/11
f 35/36/12 36/35/12 40/37/12 39/38/12
f 37/39/13 38/40/13 34/34/13 33/33/13
f 35/36/14 39/38/14 37/39/14 33/33/14
f 40/37/15 36/35/15 34/34/15 38/40/15
f 41/41/6 42/42/6 44/43/6 43/44/6
f 43/44/7 44/43/7 48/45/7 47/46/7
f 45/47/8 46/48/8 42/42/8 41/41/8
f 43/44/9 47/46/9 45/47/9 41/41/9
f 48/45/10 44/43/10 42/42/10 46/48/10
f 49/49/1 50/50/1 52/51/1 51/52/1
f 51/52/2 52/51/2 56/53/2 55/54/2
f 55/54/16 56/53/16 54/55/16 53/56/16
f 53/56/3 54/55/3 50/50/3 49/49/3
f 51/52/4 55/54/4 53/56/4 49/49/4
f 56/53/5 52/51/5 50/50/5 54/55/5
f 57/57/1 58/58/1 60/59/1 59/60/1
f 59/60/2 60/59/2 64/61/2 63/62/2
f 63/62/16 64/61/16 62/63/16 61/64/16
f 61/64/3 62/63/3 58/58/3 57/57/3
f 59/60/4 63/62/4 61/64/4 57/57/4
f 64/61/5 60/59/5 58/58/5 62/63/5
f 65/65/1 66/66/1 68/67/1 67/68/1
f 67/68/2 68/67/2 72/69/2 71/70/2
f 71/70/16 72/69/16 70/71/16 69/72/16
f 69/73/3 70/74/3 66/75/3 65/76/3
f 67/77/4 71/78/4 69/73/4 65/76/4
f 72/79/5 68/80/5 66/75/5 70/74/5
f 73/81/1 74/82/1 76/83/1 75/84/1
f 75/84/2 76/83/2 80/85/2 79/86/2
f 79/86/16 80/85/16 78/87/16 77/88/16
f 77/88/3 78/87/3 74/82/3 73/81/3
f 75/84/4 79/86/4 77/88/4 73/81/4
f 80/85/5 76/83/5 74/82/5 78/87/5
f 81/89/1 82/90/1 84/91/1 83/92/1
f 83/93/2 84/94/2 88/95/2 87/96/2
f 87/97/16 88/98/16 86/99/16 85/100/16
f 85/100/3 86/99/3 82/90/3 81/89/3
f 83/92/4 87/97/4 85/100/4 81/89/4
f 88/98/5 84/91/5 82/90/5 86/99/5
f 89/101/1 90/102/1 92/103/1 91/104/1
f 91/104/2 92/103/2 96/105/2 95/106/2
f 95/106/16 96/105/16 94/107/16 93/108/16
f 93/108/3 94/107/3 90/102/3 89/101/3
f 91/104/4 95/106/4 93/108/4 89/101/4
f 96/105/5 92/103/5 90/102/5 94/107/5
f 97/109/1 98/110/1 100/111/1 99/112/1
f 99/112/2 100/111/2 104/113/2 103/114/2
f 103/114/16 104/113/16 102/115/16 101/116/16
f 101/116/3 102/115/3 98/110/3 97/109/3
f 99/112/4 103/114/4 101/116/4 97/109/4
f 104/113/5 100/111/5 98/110/5 102/115/5
f 105/117/1 106/118/1 108/119/1 107/120/1
f 107/120/2 108/119/2 112/121/2 111/122/2
f 111/122/16 112/121/16 110/123/16 109/124/16
f 109/124/3 110/123/3 106/118/3 105/117/3
f 107/120/4 111/122/4 109/124/4 105/117/4
f 112/121/5 108/119/5 106/118/5 110/123/5
f 113/125/1 114/126/1 116/127/1 115/128/1
f 115/128/2 116/127/2 120/129/2 119/130/2
f 119/130/16 120/129/16 118/131/16 117/132/16
f 117/132/3 118/131/3 114/126/3 113/125/3
f 115/128/4 119/130/4 117/132/4 113/125/4
f 120/133/5 116/134/5 114/135/5 118/136/5
f 121/137/11 122/138/11 124/139/11 123/140/11
f 123/140/12 124/139/12 128/141/12 127/142/12
f 125/143/13 126/144/13 122/138/13 121/137/13
f 123/140/14 127/142/14 125/143/14 121/137/14
f 128/141/15 124/139/15 122/138/15 126/144/15
f 129/145/1 130/146/1 132/147/1 131/148/1
f 131/148/2 132/147/2 136/149/2 135/150/2
f 135/150/16 136/149/16 134/151/16 133/152/16
f 133/152/3 134/151/3 130/146/3 129/145/3
f 131/148/4 135/150/4 133/152/4 129/145/4
f 136/149/5 132/147/5 130/146/5 134/151/5
f 137/153/1 138/154/1 140/155/1 139/156/1
f 139/156/2 140/155/2 144/157/2 143/158/2
f 143/158/16 144/157/16 142/159/16 141/160/16
f 141/160/3 142/159/3 138/154/3 137/153/3
f 139/156/4 143/158/4 141/160/4 137/153/4
f 144/157/5 140/155/5 138/154/5 142/159/5
f 145/161/1 146/162/1 148/163/1 147/164/1
f 147/164/2 148/163/2 152/165/2 151/166/2
f 151/166/16 152/165/16 150/167/16 149/168/16
f 149/168/3 150/167/3 146/162/3 145/161/3
f 147/164/4 151/166/4 149/168/4 145/161/4
f 152/165/5 148/163/5 146/162/5 150/167/5
f 153/169/17 154/170/17 155/171/17 156/172/17
f 157/173/18 160/174/18 159/175/18 158/176/18
f 153/177/19 157/178/19 158/179/19 154/180/19
f 154/181/20 158/182/20 159/183/20 155/184/20
f 155/185/21 159/186/21 160/187/21 156/188/21
f 157/189/22 153/190/22 156/191/22 160/192/22
f 161/193/1 162/194/1 164/195/1 163/196/1
f 168/197/16 166/198/16 165/199/16 167/200/16
f 162/194/5 166/198/5 168/197/5 164/195/5
f 163/196/4 167/200/4 165/199/4 161/193/4
f 164/195/2 168/197/2 167/200/2 163/196/2
f 161/193/3 165/199/3 166/198/3 162/194/3
f 169/201/1 170/202/1 172/203/1 171/204/1
f 171/204/2 172/203/2 176/205/2 175/206/2
f 175/206/16 176/205/16 174/207/16 173/208/16
f 173/208/3 174/207/3 170/202/3 169/201/3
f 171/204/4 175/206/4 173/208/4 169/201/4
f 176/205/5 172/203/5 170/202/5 174/207/5
